<svg width="256" height="256" viewBox="0 0 256 256" fill="none" xmlns="http://www.w3.org/2000/svg">
<rect width="256" height="256" rx="128" fill="#1A5AFF"/>
<path d="M175.2 76C168.7 76 162.7 79.5 159.4 85.1L118.6 156H88.0999V192H129.1C135.6 192 141.6 188.5 144.8 182.9L185.7 112H216V76H175.2Z" fill="white"/>
<path d="M66.8 192L36 174L86.9999 85C90.1999 79.4 96.0999 76 102.6 76H143V112H112.9L66.8 192Z" fill="white"/>
<path d="M39 76V112C58.8895 112 75 95.8895 75 76H39Z" fill="white"/>
<path d="M198 170C207.945 170 216 161.945 216 152C216 142.055 208.044 134 198 134C188.055 134 180 142.055 180 152C180 161.945 188.055 170 198 170Z" fill="white"/>
</svg>
